
<svg version="1.0" xmlns="http://www.w3.org/2000/svg"
 width="32.000000pt" height="27.000000pt" viewBox="0 0 64.000000 54.000000"
 preserveAspectRatio="xMidYMid meet">
<metadata>
Created by potrace 1.16, written by Peter Selinger 2001-2019
</metadata>
<g transform="translate(0.000000,54.000000) scale(0.100000,-0.100000)"
fill="#000000" stroke="none">
<path d="M366 455 l-39 -85 -163 0 c-139 0 -164 -2 -164 -15 0 -13 42 -15 320
-15 275 0 320 2 320 15 0 12 -23 15 -130 17 l-130 3 31 67 c31 65 33 98 7 98
-7 0 -30 -38 -52 -85z"/>
<path d="M10 299 c0 -6 17 -76 37 -155 l37 -144 236 0 236 0 42 144 c23 79 42
149 42 155 0 8 -95 11 -315 11 -223 0 -315 -3 -315 -11z"/>
</g>
</svg>
