<?xml version="1.0" encoding="utf-8"?>
<!-- Generator: Adobe Illustrator 26.1.0, SVG Export Plug-In . SVG Version: 6.00 Build 0)  -->
<svg version="1.1" id="Layer_1" xmlns="http://www.w3.org/2000/svg" xmlns:xlink="http://www.w3.org/1999/xlink" x="0px" y="0px"
	 viewBox="0 0 33.99 17.5" style="enable-background:new 0 0 33.99 17.5;" xml:space="preserve">
<style type="text/css">
	.st0{fill-rule:evenodd;clip-rule:evenodd;}
</style>
<path class="st0" d="M10.59,15.4V0h18.43l1.93,6.27l-0.59,0.18l0.59-0.18c0.03,0.08,0.08,0.15,0.16,0.18l2.87,1.3v7.65h-2.84
	c-0.38,1.22-1.52,2.1-2.86,2.1s-2.48-0.88-2.86-2.1h-6.27c-0.38,1.22-1.52,2.1-2.86,2.1s-2.48-0.88-2.86-2.1H10.59z M29.48,6.22
	l-1.42-4.61l0.65-0.2l-0.65,0.2C28.02,1.49,27.9,1.4,27.77,1.4h-1.08v4.82H29.48z M25.29,1.4v6.22h5.05
	c0.06,0.04,0.13,0.08,0.2,0.11l2.05,0.92v5.05c0,0.17-0.13,0.3-0.3,0.3h-1.04c-0.24-1.42-1.47-2.5-2.96-2.5s-2.72,1.08-2.96,2.5
	h-6.08c-0.24-1.42-1.47-2.5-2.96-2.5s-2.72,1.08-2.96,2.5h-1.04c-0.17,0-0.3-0.13-0.3-0.3V1.4H25.29z M17.89,14.5
	c0,0.88-0.72,1.6-1.6,1.6c-0.88,0-1.6-0.72-1.6-1.6c0-0.88,0.72-1.6,1.6-1.6C17.17,12.9,17.89,13.62,17.89,14.5z M28.29,16.1
	c0.88,0,1.6-0.72,1.6-1.6c0-0.88-0.72-1.6-1.6-1.6s-1.6,0.72-1.6,1.6C26.69,15.38,27.41,16.1,28.29,16.1z"/>
<g>
	<rect x="6" y="3.42" width="2.93" height="1.4"/>
</g>
<g>
	<rect x="3.04" y="7.05" width="5.93" height="1.4"/>
</g>
<g>
	<rect x="0" y="10.69" width="8.93" height="1.4"/>
</g>
</svg>
